<svg width="14" height="14" viewBox="0 0 14 14" fill="none" xmlns="http://www.w3.org/2000/svg">
<path d="M6.99999 2.89998H6.99998C6.79665 2.89998 6.60164 2.98075 6.45786 3.12453C6.31409 3.26831 6.23331 3.46331 6.23331 3.66665V6.99998H6.23308L6.23355 7.00683L6.23955 7.09417L6.23935 7.09418L6.24017 7.10039C6.26222 7.26753 6.33875 7.42274 6.45791 7.54199L6.45794 7.54202L8.45793 9.54202L8.4578 9.54216L8.46246 9.54627L8.52512 9.60161L8.52498 9.60177L8.53014 9.60575C8.68424 9.7249 8.87791 9.78093 9.07181 9.76246C9.26572 9.74399 9.44533 9.6524 9.57415 9.5063C9.70298 9.3602 9.77136 9.17054 9.76542 8.97585C9.75947 8.78115 9.67964 8.59602 9.54214 8.45806L9.54202 8.45793L7.76665 6.68256V3.66665H7.76682L7.76647 3.66067L7.7618 3.58267L7.76197 3.58266L7.76129 3.57695C7.73932 3.39045 7.64967 3.21851 7.50934 3.09373C7.36902 2.96895 7.18777 2.9 6.99999 2.89998ZM13.7666 6.99998C13.7666 3.26275 10.7372 0.233313 6.99998 0.233313C3.26275 0.233313 0.233313 3.26275 0.233313 6.99998C0.233313 10.7372 3.26275 13.7666 6.99998 13.7666C10.7372 13.7666 13.7666 10.7372 13.7666 6.99998ZM3.29945 3.29945C4.28089 2.31801 5.61201 1.76665 6.99998 1.76665C8.38795 1.76665 9.71906 2.31801 10.7005 3.29945C11.6819 4.28089 12.2333 5.61201 12.2333 6.99998C12.2333 8.38795 11.6819 9.71906 10.7005 10.7005C9.71906 11.6819 8.38795 12.2333 6.99998 12.2333C5.61201 12.2333 4.28089 11.6819 3.29945 10.7005C2.31801 9.71906 1.76665 8.38795 1.76665 6.99998C1.76665 5.61201 2.31801 4.28089 3.29945 3.29945Z" fill="#CACACA" stroke="#CACACA" stroke-width="0.2"/>
</svg>
