<svg width="14" height="14" viewBox="0 0 14 14" fill="none" xmlns="http://www.w3.org/2000/svg">
<path d="M11.1709 8.69537L11.1707 8.69526C10.0866 8.03452 8.61598 7.56665 7 7.56665C5.38469 7.56665 3.91339 8.03452 2.82929 8.69526L2.82915 8.69534C2.28757 9.02665 1.82247 9.41735 1.48421 9.8453L1.48416 9.84537C1.15214 10.2662 0.9 10.7782 0.9 11.3333C0.9 11.933 1.19221 12.4031 1.60607 12.7353C1.99497 13.0478 2.50291 13.251 3.03239 13.3913L3.03239 13.3913C4.09738 13.6734 5.51203 13.7666 7 13.7666C8.48803 13.7666 9.90262 13.6727 10.9675 13.3913L10.9676 13.3913C11.4971 13.251 12.005 13.0478 12.3939 12.7353C12.8071 12.4038 13.1 11.933 13.1 11.3333C13.1 10.7782 12.8479 10.2662 12.5158 9.84537L12.5158 9.8453C12.1775 9.41732 11.7117 9.02663 11.1709 8.69537ZM3.62801 10.0047L3.62809 10.0047C4.47463 9.48811 5.66997 9.09998 7 9.09998C8.33006 9.09998 9.52539 9.48746 10.3719 10.0046L10.372 10.0047C10.7955 10.2626 11.111 10.5405 11.3128 10.7959C11.52 11.0589 11.5667 11.2436 11.5667 11.3333C11.5667 11.3622 11.5626 11.3871 11.5477 11.4155C11.5317 11.4458 11.5 11.4864 11.4341 11.5393L11.434 11.5393C11.2836 11.6602 11.0103 11.7936 10.5745 11.9086L10.5744 11.9086C9.70938 12.1379 8.45803 12.2333 7 12.2333C5.54258 12.2333 4.29062 12.1385 3.425 11.9087L3.42489 11.9086C2.98977 11.7936 2.71638 11.6602 2.56596 11.5393L2.56593 11.5393C2.5 11.4864 2.46827 11.4458 2.45233 11.4155C2.43738 11.3871 2.43333 11.3622 2.43333 11.3333C2.43333 11.2443 2.47998 11.0589 2.68779 10.796L2.6879 10.7958C2.88893 10.5406 3.20441 10.2627 3.62801 10.0047ZM9.42773 1.23891C8.78386 0.595038 7.91058 0.233313 7 0.233313C6.08942 0.233313 5.21614 0.595038 4.57227 1.23891C3.92839 1.88279 3.56667 2.75607 3.56667 3.66665C3.56667 4.57722 3.92839 5.4505 4.57227 6.09438C5.21614 6.73825 6.08942 7.09998 7 7.09998C7.91058 7.09998 8.78386 6.73825 9.42773 6.09438C10.0716 5.4505 10.4333 4.57722 10.4333 3.66665C10.4333 2.75607 10.0716 1.88279 9.42773 1.23891ZM6.2729 1.91128C6.50342 1.81579 6.75049 1.76665 7 1.76665C7.50391 1.76665 7.98718 1.96682 8.3435 2.32314C8.69982 2.67946 8.9 3.16273 8.9 3.66665C8.9 4.17056 8.69982 4.65383 8.3435 5.01015C7.98718 5.36647 7.50391 5.56665 7 5.56665C6.75049 5.56665 6.50342 5.5175 6.2729 5.42202C6.04238 5.32653 5.83293 5.18658 5.6565 5.01015C5.48007 4.83372 5.34011 4.62426 5.24463 4.39374C5.14915 4.16323 5.1 3.91616 5.1 3.66665C5.1 3.41713 5.14915 3.17007 5.24463 2.93955C5.34011 2.70903 5.48007 2.49957 5.6565 2.32314C5.83293 2.14671 6.04238 2.00676 6.2729 1.91128Z" fill="#CACACA" stroke="#CACACA" stroke-width="0.2"/>
</svg>
