<svg width="14" height="14" viewBox="0 0 14 14" fill="none" xmlns="http://www.w3.org/2000/svg">
<path d="M7.00009 8.23331H6.99998H4.99998V8.23313L4.99401 8.23349L4.91601 8.23816L4.916 8.23799L4.91017 8.23868C4.71613 8.26176 4.53822 8.35806 4.4128 8.50791C4.28739 8.65775 4.22392 8.84984 4.23537 9.04491C4.24682 9.23998 4.33233 9.42332 4.47442 9.55746C4.61651 9.6916 4.80446 9.76643 4.99987 9.76665H4.99998H6.99998V9.76682L7.00595 9.76647L7.08395 9.7618L7.08396 9.76197L7.08979 9.76128C7.28383 9.7382 7.46173 9.6419 7.58715 9.49205C7.71257 9.3422 7.77604 9.15012 7.76459 8.95505C7.75314 8.75998 7.66763 8.57664 7.52554 8.4425C7.38345 8.30835 7.1955 8.23353 7.00009 8.23331ZM13.7666 6.99998C13.7666 3.26275 10.7372 0.233313 6.99998 0.233313C3.26275 0.233313 0.233313 3.26275 0.233313 6.99998V12.3333C0.233313 12.7135 0.384324 13.078 0.653126 13.3468C0.921929 13.6156 1.2865 13.7666 1.66665 13.7666H6.99998C10.7372 13.7666 13.7666 10.7372 13.7666 6.99998ZM3.29945 3.29945C4.28089 2.31801 5.61201 1.76665 6.99998 1.76665C8.38795 1.76665 9.71906 2.31801 10.7005 3.29945C11.6819 4.28089 12.2333 5.61201 12.2333 6.99998C12.2333 8.38795 11.6819 9.71906 10.7005 10.7005C9.71906 11.6819 8.38795 12.2333 6.99998 12.2333H1.76665V6.99998C1.76665 5.61201 2.31801 4.28089 3.29945 3.29945ZM9.54209 5.7912C9.39832 5.64742 9.20331 5.56665 8.99998 5.56665H4.99998C4.79665 5.56665 4.60164 5.64742 4.45786 5.7912C4.31409 5.93498 4.23331 6.12998 4.23331 6.33331C4.23331 6.53665 4.31409 6.73165 4.45786 6.87543C4.60164 7.01921 4.79665 7.09998 4.99998 7.09998H8.99998C9.20331 7.09998 9.39832 7.01921 9.54209 6.87543C9.68587 6.73165 9.76665 6.53665 9.76665 6.33331C9.76665 6.12998 9.68587 5.93498 9.54209 5.7912Z" fill="#CACACA" stroke="#CACACA" stroke-width="0.2"/>
</svg>
